<svg width="123" height="123" fill="none" xmlns="http://www.w3.org/2000/svg"><mask id="a" style="mask-type:alpha" maskUnits="userSpaceOnUse" x="0" y="0" width="123" height="123"><path d="M48.321 101.036h-8.785c-17.132 0-30.75-13.618-30.75-30.75V61.5h8.785v8.786c0 12.3 9.665 21.964 21.965 21.964h8.785v8.786Zm21.965-35.143h43.928c4.832 0 8.786 3.953 8.786 8.786v26.357c0 4.832-3.954 8.785-8.786 8.785h-10.543L96.204 123l-7.468-4.393 10.103-17.571h15.375V74.679H70.286v26.357h13.178v8.785H70.286c-4.832 0-8.786-3.953-8.786-8.785V74.679c0-4.833 3.954-8.786 8.786-8.786Zm43.928-17.572h-8.785v-8.785c0-12.3-9.665-21.965-21.965-21.965H65.893V8.786h17.571c17.132 0 30.75 13.618 30.75 30.75v8.785ZM0 35.143h26.357v8.786H0v-8.786ZM0 17.57h52.714v8.786H0v-8.786ZM0 0h52.714v8.786H0V0Z" fill="#fff"/></mask><g mask="url(#a)"><path fill="#2784C8" d="M56.063 61.589h80v62h-80z"/><path fill="#fff" d="M56.063-6.411h80v62h-80zM-23.938-6.411h80v62h-80zM-23.938 60.589h80v62h-80z"/></g></svg>