<svg width="69" height="125" fill="none" xmlns="http://www.w3.org/2000/svg"><path d="M24.61 43.837 34.142 15l9.133 28.922m-3.056-9.673h-12.44M18 81.354h32M34 74.97v6.385m8.956 0c0 8.82-10.164 23.417-20.327 25.646" stroke="#fff" stroke-width="6" stroke-linecap="round" stroke-linejoin="round"/><path d="M25 89c1.068 6.21 12.148 16.551 22 18" stroke="#fff" stroke-width="6" stroke-linecap="round" stroke-linejoin="round"/><path d="M3 90.891a31.09 31.09 0 0 0 9.181 21.918 31.634 31.634 0 0 0 22.072 9.19 31.647 31.647 0 0 0 22.215-8.846 31.099 31.099 0 0 0 9.526-21.773l.006-.477a26.2 26.2 0 0 0-5.556-15.731 26.588 26.588 0 0 0-13.969-9.277l-24.024-6.808A26.357 26.357 0 0 1 9.09 50.612a25.982 25.982 0 0 1-6.027-14.546 31.136 31.136 0 0 1-.058-2.446 31.099 31.099 0 0 1 9.525-21.773 31.646 31.646 0 0 1 22.215-8.846 31.638 31.638 0 0 1 22.072 9.19 31.09 31.09 0 0 1 9.18 21.918" stroke="#2784C8" stroke-width="6" stroke-linecap="round" stroke-linejoin="round"/></svg>