<svg width="154" height="123" fill="none" xmlns="http://www.w3.org/2000/svg"><mask id="a" style="mask-type:alpha" maskUnits="userSpaceOnUse" x="0" y="0" width="154" height="123"><path d="M61.597 0h76.996c8.494 0 15.399 6.895 15.399 15.375v53.813c0 8.48-6.905 15.374-15.399 15.374H61.597c-8.494 0-15.4-6.894-15.4-15.374V15.374C46.198 6.895 53.104 0 61.598 0Zm52.935 25.633a5.804 5.804 0 0 0-4.813-2.57c-1.925 0-3.729.96-4.812 2.57l-13.474 20.18L87.27 40.6a5.8 5.8 0 0 0-4.5-2.163 5.765 5.765 0 0 0-4.499 2.163L62.872 59.818a5.744 5.744 0 0 0-.698 6.102 5.778 5.778 0 0 0 5.198 3.267h65.446a5.79 5.79 0 0 0 5.101-3.05 5.732 5.732 0 0 0-.289-5.91l-23.098-34.594Zm-33.686-2.57a7.685 7.685 0 0 0-7.7-7.688 7.685 7.685 0 0 0-7.7 7.688 7.685 7.685 0 0 0 7.7 7.687c4.26 0 7.7-3.435 7.7-7.688ZM15.399 30.75h23.099v69.188a7.685 7.685 0 0 0 7.7 7.687h30.798c4.259 0 7.7-3.435 7.7-7.688V92.25h38.498v15.375c0 8.48-6.906 15.375-15.4 15.375H15.399C6.906 123 0 116.105 0 107.625v-61.5c0-8.48 6.906-15.375 15.4-15.375Zm1.925 15.375a3.858 3.858 0 0 0-3.85 3.844v3.843a3.858 3.858 0 0 0 3.85 3.844h3.85c2.117 0 3.85-1.73 3.85-3.843v-3.844a3.858 3.858 0 0 0-3.85-3.844h-3.85Zm0 24.984a3.858 3.858 0 0 0-3.85 3.844v3.844a3.858 3.858 0 0 0 3.85 3.844h3.85c2.117 0 3.85-1.73 3.85-3.844v-3.844a3.858 3.858 0 0 0-3.85-3.844h-3.85Zm0 24.985a3.858 3.858 0 0 0-3.85 3.844v3.843a3.858 3.858 0 0 0 3.85 3.844h3.85c2.117 0 3.85-1.73 3.85-3.844v-3.844a3.858 3.858 0 0 0-3.85-3.843h-3.85Zm80.846 3.844v3.843a3.858 3.858 0 0 0 3.85 3.844h3.85a3.858 3.858 0 0 0 3.849-3.844v-3.844a3.858 3.858 0 0 0-3.849-3.843h-3.85a3.858 3.858 0 0 0-3.85 3.844Z" fill="#fff"/></mask><g mask="url(#a)"><path fill="#2784C8" d="M-6.78 23.244h50.362v104.598H-6.78z"/><path fill="#2784C8" d="M33.898 91.039h110.409v36.803H33.898z"/><path fill="#fff" d="M46.488-4.843h107.504v92.008H46.488z"/></g></svg>