<svg width="123" height="123" fill="none" xmlns="http://www.w3.org/2000/svg"><mask id="a" style="mask-type:alpha" maskUnits="userSpaceOnUse" x="0" y="0" width="123" height="123"><path d="M27.333 4.1C27.333.321 24.272 0 20.5 0c-3.779 0-6.833.321-6.833 4.1v57.4h13.666V4.1ZM13.667 118.9c0 3.765 3.054 4.1 6.833 4.1 3.772 0 6.833-.335 6.833-4.1V95.667H13.667V118.9Zm23.226-50.567h-32.8C.314 68.333 0 71.395 0 75.167V82c0 3.779.314 6.833 4.093 6.833H36.9c3.758 0 4.1-3.054 4.1-6.833v-6.833c0-3.772-.342-6.834-4.107-6.834Zm82 6.834H86.086C82.314 75.167 82 78.228 82 82v6.833c0 3.78.314 6.834 4.093 6.834H118.9c3.758 0 4.1-3.055 4.1-6.834V82c0-3.772-.342-6.833-4.107-6.833ZM82 41c0-3.772-.342-6.833-4.107-6.833h-32.8C41.314 34.167 41 37.228 41 41v6.833c0 3.78.314 6.834 4.093 6.834H77.9c3.758 0 4.1-3.055 4.1-6.834V41ZM68.333 4.1C68.333.321 65.272 0 61.5 0c-3.779 0-6.833.321-6.833 4.1v23.233h13.666V4.1ZM54.667 118.9c0 3.765 3.054 4.1 6.833 4.1 3.772 0 6.833-.335 6.833-4.1V61.5H54.667v57.4ZM109.333 4.1c0-3.779-3.061-4.1-6.833-4.1-3.779 0-6.833.321-6.833 4.1v64.233h13.666V4.1ZM95.667 118.9c0 3.765 3.054 4.1 6.833 4.1 3.772 0 6.833-.335 6.833-4.1v-16.4H95.667v16.4Z" fill="#fff"/></mask><g mask="url(#a)"><path fill="#2784C8" d="M37.779 32.507h44.807v24.6H37.779z"/><path fill="#fff" d="M0 65.014h44.807v24.6H0zM80.829 73.8h44.807v24.6H80.829zM4.393-5.271h29.871V61.5H4.393zM4.393 93.129h29.871V159.9H4.393zM46.564 61.5h29.871v66.771H46.564zM46.564-38.657h29.871v66.771H46.564zM90.493-2.636h29.871v72.043H90.493zM88.736 101.914h29.871v72.043H88.736z"/></g></svg>