<svg width="130" height="125" fill="none" xmlns="http://www.w3.org/2000/svg"><path d="M87 110.4 98.429 122 127 93" stroke="#2784C8" stroke-width="6" stroke-linecap="round" stroke-linejoin="round"/><path d="M61 20.5C61 10.835 53.165 3 43.5 3S26 10.835 26 20.5v35C26 65.165 33.835 73 43.5 73S61 65.165 61 55.5v-35Z" stroke="#fff" stroke-width="6"/><path d="M3 50v5.75a40.124 40.124 0 0 0 11.862 28.461A40.628 40.628 0 0 0 43.5 96m0 0a40.628 40.628 0 0 0 28.638-11.789A40.124 40.124 0 0 0 84 55.75V50M43.5 96v23m0 0H26.143m17.357 0h17.357" stroke="#fff" stroke-width="6" stroke-linecap="round" stroke-linejoin="round"/></svg>