<svg width="304" height="289" viewBox="0 0 304 289" fill="none" xmlns="http://www.w3.org/2000/svg">
<path d="M2.51314 43.369C1.28681 41.9441 0.598482 40.0165 0.598482 38.0073C0.598482 35.9981 1.28681 34.0705 2.51314 32.6456C3.68185 31.3147 31.4181 0 86.1992 0C114.528 0 135.45 16.1232 155.696 31.6949C175.087 46.6773 193.539 60.8421 217.885 60.8421C266.888 60.8421 291.958 32.9118 292.254 32.6266C293.492 31.2021 295.169 30.4037 296.916 30.4073C298.663 30.4109 300.338 31.216 301.571 32.6456C302.804 34.0752 303.495 36.0121 303.492 38.0302C303.489 40.0484 302.792 41.9825 301.554 43.407C300.402 44.738 272.666 76.0526 217.885 76.0526C189.556 76.0526 168.634 59.9295 148.388 44.3577C128.997 29.3753 110.545 15.2105 86.1992 15.2105C37.1958 15.2105 12.1262 43.1409 11.8299 43.426C11.2151 44.1294 10.4864 44.686 9.68533 45.0638C8.88425 45.4416 8.02655 45.6334 7.16127 45.6281C6.29599 45.6228 5.44011 45.4206 4.64255 45.0329C3.84498 44.6453 3.12139 44.0799 2.51314 43.369ZM292.221 139.1C291.958 139.385 266.888 167.316 217.885 167.316C193.539 167.316 175.087 153.151 155.696 138.169C135.45 122.597 114.528 106.474 86.1992 106.474C31.4181 106.474 3.68184 137.788 2.5296 139.119C1.91677 139.825 1.43023 140.663 1.09774 141.585C0.765252 142.508 0.593336 143.497 0.591807 144.496C0.590279 145.495 0.759166 146.485 1.08883 147.409C1.41849 148.333 1.90247 149.173 2.51314 149.881C3.1238 150.589 3.8492 151.151 4.6479 151.535C5.4466 151.919 6.30297 152.117 7.16811 152.119C8.03325 152.121 8.89021 151.926 9.69009 151.545C10.49 151.164 11.2171 150.605 11.8299 149.9C12.1262 149.615 37.1958 121.684 86.1992 121.684C110.545 121.684 128.997 135.849 148.388 150.831C168.634 166.403 189.539 182.526 217.885 182.526C272.666 182.526 300.402 151.212 301.554 149.881C302.792 148.456 303.489 146.522 303.492 144.504C303.495 142.486 302.804 140.549 301.571 139.119C300.338 137.69 298.663 136.885 296.916 136.881C295.169 136.877 293.492 137.676 292.254 139.1H292.221ZM292.221 245.574C291.958 245.859 266.888 273.789 217.885 273.789C193.539 273.789 175.087 259.625 155.696 244.642C135.45 229.071 114.528 212.947 86.1992 212.947C31.4181 212.947 3.68184 244.262 2.5296 245.593C1.29194 247.018 0.594894 248.952 0.591807 250.97C0.58872 252.988 1.27984 254.925 2.51314 256.354C3.74643 257.784 5.42088 258.589 7.16811 258.593C8.91533 258.596 10.5922 257.798 11.8299 256.373C12.1262 256.088 37.1958 228.158 86.1992 228.158C110.545 228.158 128.997 242.323 148.388 257.305C168.634 272.877 189.539 289 217.885 289C272.666 289 300.402 257.685 301.554 256.354C302.167 255.649 302.654 254.811 302.986 253.889C303.319 252.966 303.491 251.977 303.492 250.978C303.494 249.978 303.325 248.988 302.995 248.065C302.665 247.141 302.181 246.301 301.571 245.593C300.96 244.885 300.235 244.323 299.436 243.939C298.637 243.555 297.781 243.356 296.916 243.355C296.051 243.353 295.194 243.548 294.394 243.929C293.594 244.31 292.867 244.869 292.254 245.574H292.221Z" fill="white"/>
</svg>
